<svg width="35" height="35" viewBox="0 0 35 35" fill="none" xmlns="http://www.w3.org/2000/svg">
<path d="M17.5 3.82812C13.874 3.82813 10.3965 5.26855 7.83252 7.83252C5.26855 10.3965 3.82813 13.874 3.82812 17.5C3.82813 21.126 5.26855 24.6035 7.83252 27.1675C10.3965 29.7314 13.874 31.1719 17.5 31.1719C21.126 31.1719 24.6035 29.7314 27.1675 27.1675C29.7314 24.6035 31.1719 21.126 31.1719 17.5C31.1719 13.874 29.7314 10.3965 27.1675 7.83252C24.6035 5.26855 21.126 3.82813 17.5 3.82812Z" fill="#E9E0F0"/>
<path d="M17.5 31.9922C9.51562 31.9922 3.00781 25.4844 3.00781 17.5C3.00781 9.51562 9.51562 3.00781 17.5 3.00781C25.4844 3.00781 31.9922 9.51562 31.9922 17.5C31.9922 25.4844 25.4844 31.9922 17.5 31.9922ZM17.5 4.64844C10.418 4.64844 4.64844 10.418 4.64844 17.5C4.64844 24.582 10.418 30.3516 17.5 30.3516C24.582 30.3516 30.3516 24.582 30.3516 17.5C30.3516 10.418 24.582 4.64844 17.5 4.64844Z" fill="#9D4CDC"/>
<path d="M15.4492 22.4219C15.3125 22.4219 15.1758 22.3945 15.0391 22.3125C14.793 22.1758 14.6289 21.9023 14.6289 21.6016V13.3984C14.6289 13.0977 14.793 12.8242 15.0391 12.6875C15.2852 12.5508 15.6133 12.5508 15.8594 12.6875L22.9688 16.7891C23.2148 16.9258 23.3789 17.1992 23.3789 17.5C23.3789 17.8008 23.2148 18.0742 22.9688 18.2109L15.8594 22.3125C15.7227 22.3945 15.5859 22.4219 15.4492 22.4219ZM16.2695 14.8203V20.1797L20.918 17.5L16.2695 14.8203Z" fill="#FF8A00"/>
</svg>
