<svg width="28" height="28" viewBox="0 0 28 28" fill="none" xmlns="http://www.w3.org/2000/svg">
<path d="M21.6562 24.9375H19.4688L21.6562 3.0625H23.8438C24.4563 3.0625 24.9375 3.54375 24.9375 4.15625V21.6562L21.6562 24.9375Z" fill="#6E6E8E"/>
<path d="M19.4688 24.9375H7.21875C6.60625 24.9375 6.125 24.4562 6.125 23.8438V4.15625C6.125 3.54375 6.60625 3.0625 7.21875 3.0625H21.6562C22.2687 3.0625 22.75 3.54375 22.75 4.15625V21.6562L19.4688 24.9375Z" fill="white"/>
<path d="M19.4688 25.5938H7.21875C6.25625 25.5938 5.46875 24.8062 5.46875 23.8438V4.15625C5.46875 3.19375 6.25625 2.40625 7.21875 2.40625H21.6562C22.6187 2.40625 23.4062 3.19375 23.4062 4.15625V21.6562C23.4062 21.8312 23.3406 22.0063 23.2094 22.1156L19.9281 25.3969C19.8187 25.5281 19.6438 25.5938 19.4688 25.5938ZM7.21875 3.71875C6.97812 3.71875 6.78125 3.91562 6.78125 4.15625V23.8438C6.78125 24.0844 6.97812 24.2812 7.21875 24.2812H19.2063L22.0938 21.3938V4.15625C22.0938 3.91562 21.8969 3.71875 21.6562 3.71875H7.21875Z" fill="#444B54"/>
<path d="M8.53125 5.46875H20.3438V17.0625H8.53125V5.46875Z" fill="#FF8A00"/>
<path d="M19.6875 18.7906C19.5135 18.7906 19.3465 18.8598 19.2235 18.9828C19.1004 19.1059 19.0312 19.2728 19.0312 19.4469C19.0312 19.6209 19.1004 19.7878 19.2235 19.9109C19.3465 20.034 19.5135 20.1031 19.6875 20.1031C19.8615 20.1031 20.0285 20.034 20.1515 19.9109C20.2746 19.7878 20.3438 19.6209 20.3438 19.4469C20.3438 19.2728 20.2746 19.1059 20.1515 18.9828C20.0285 18.8598 19.8615 18.7906 19.6875 18.7906ZM17.0625 21.2187C16.8885 21.2187 16.7215 21.2879 16.5985 21.411C16.4754 21.534 16.4062 21.7009 16.4062 21.875C16.4062 22.049 16.4754 22.216 16.5985 22.339C16.7215 22.4621 16.8885 22.5312 17.0625 22.5312C17.2365 22.5312 17.4035 22.4621 17.5265 22.339C17.6496 22.216 17.7188 22.049 17.7188 21.875C17.7188 21.7009 17.6496 21.534 17.5265 21.411C17.4035 21.2879 17.2365 21.2187 17.0625 21.2187ZM12.4688 20.1031H11.1562V18.7906H9.84375V20.1031H8.53125V21.2187H9.84375V22.5312H11.1562V21.2187H12.4688V20.1031Z" fill="#9D4CDC"/>
</svg>
